# xmcd
#
# Track frame offsets: 
#        150
#        15686
#        34999
#        51519
#        62058
#        79253
#        99075
#        113307
#        136742
#        158708
#
# Disc length: 2335 seconds
#
# Revision: 0
# Processed by: cddbd v1.5.2PL0 Copyright (c) Steve Scherf et al.
# Submitted via: ExactAudioCopy v1.0b4
#
DISCID=74091d0a
DTITLE=David Vest - David Vest
DYEAR=2018
DGENRE=Blues
TTITLE0=Some Old Lonesome Day
TTITLE1=Genevieve
TTITLE2=Party In The Room Next Door
TTITLE3=Crocodile
TTITLE4=Leak In This Old Building
TTITLE5=What's The Matter Now
TTITLE6=Gotta Travel On
TTITLE7=Decolonize Yourself
TTITLE8=Renoviction Man
TTITLE9=Lomax
EXTD=
EXTT0=
EXTT1=
EXTT2=
EXTT3=
EXTT4=
EXTT5=
EXTT6=
EXTT7=
EXTT8=
EXTT9=
PLAYORDER=
